# xmcd
#
# Track frame offsets:
#	150
#	25052
#	44200
#	60655
#	76917
#	93920
#	106130
#	119670
#	136147
#	158495
#	176720
#	195020
#	210962
#	226842
#	241152
#	253407
#
# Disc length: 3520 seconds
#
# Revision: 0
# Processed by: cddbd v1.4PL0 Copyright (c) Steve Scherf et al.
# Submitted via: dBpowerAMP V4.0
#
DISCID=c70dbe10
DTITLE=Redneck - I'll be lovin'you
DYEAR=1992
DGENRE=Country
TTITLE0=If That Ain 't Country
TTITLE1=Old Hippie
TTITLE2=Mountain Music
TTITLE3=Even Cowgirls Get The Blues
TTITLE4=Folsom Prison Blues
TTITLE5=I Saw The Light
TTITLE6=Send My Body
TTITLE7=15 Hours a Day
TTITLE8=Me and Paul
TTITLE9=Willie, Waylon and Me
TTITLE10=Tulsa Time
TTITLE11=Be Bop
TTITLE12='s Macht Einfach Spass
TTITLE13=Turn It Up, Turn It On, Turn Me Loose
TTITLE14=The Distance Between You And Me
TTITLE15=I'll Be Lovin' You
EXTD=My name: Martin
EXTT0=
EXTT1=
EXTT2=
EXTT3=
EXTT4=
EXTT5=
EXTT6=
EXTT7=
EXTT8=
EXTT9=
EXTT10=
EXTT11=
EXTT12=
EXTT13=
EXTT14=
EXTT15=
PLAYORDER=
